<svg id="bugLogo" xmlns="http://www.w3.org/2000/svg" viewBox="-383 168.2 456.8 456.8">
	<path d="M68.4 415.7c-3.6-3.6-7.9-5.4-12.8-5.4h-64v-83.9L41 277c3.6-3.6 5.4-7.9 5.4-12.8 0-4.9-1.8-9.2-5.4-12.8 -3.6-3.6-7.9-5.4-12.8-5.4s-9.2 1.8-12.8 5.4l-49.4 49.4h-241l-49.4-49.4c-3.6-3.6-7.9-5.4-12.8-5.4 -5 0-9.2 1.8-12.9 5.4 -3.6 3.6-5.4 7.9-5.4 12.8 0 5 1.8 9.2 5.4 12.9l49.4 49.4v83.9h-64c-4.9 0-9.2 1.8-12.8 5.4 -3.6 3.6-5.4 7.9-5.4 12.8 0 4.9 1.8 9.2 5.4 12.8 3.6 3.6 7.9 5.4 12.8 5.4h64c0 30.4 5.5 56.5 16.6 78.2l-57.7 64.8c-3.2 3.8-4.7 8.2-4.4 13.3 0.3 5 2.2 9.3 5.9 12.7 3.6 3 7.7 4.6 12.3 4.6 5.3 0 9.9-2 13.7-6l52.2-59.1 4.3 4c2.7 2.5 6.8 5.6 12.4 9.3 5.6 3.7 11.9 7.4 18.8 11.1 6.9 3.7 15.2 6.9 24.8 9.4 9.6 2.6 19.3 3.9 29 3.9V337.2h36.5V593c9.1 0 18.4-1.2 27.7-3.7 9.3-2.5 17.1-5.2 23.4-8.3 6.3-3 12.5-6.5 18.6-10.4 6.1-3.9 10.1-6.6 12-8.1 1.9-1.5 3.3-2.8 4.3-3.7L6.2 615c3.4 3.6 7.7 5.4 12.8 5.4 5.1 0 9.4-1.8 12.9-5.4 3.6-3.6 5.4-7.9 5.4-12.9 0-4.9-1.8-9.2-5.4-12.8l-59.4-59.7c12.8-22.7 19.1-50.3 19.1-82.8h64c4.9 0 9.2-1.8 12.8-5.4 3.6-3.6 5.4-7.9 5.4-12.8C73.8 423.6 72 419.3 68.4 415.7z"/>
	<path d="M-89.9 199.4c-17.8-17.8-39.4-26.7-64.7-26.7 -25.3 0-46.9 8.9-64.7 26.7 -17.8 17.8-26.7 39.4-26.7 64.7h182.7C-63.2 238.8-72.1 217.2-89.9 199.4z"/>
</svg>
