<svg id="defectLogo" xmlns="http://www.w3.org/2000/svg" viewBox="-367 152 489 489"><path d="M-295.4 569.4c-95.5-95.5-95.5-250.3 0-345.8 95.5-95.5 250.3-95.5 345.8 0 95.5 95.5 95.5 250.3 0 345.8C-45.1 664.9-199.9 664.9-295.4 569.4zM7.2 266.8c-71.6-71.6-187.7-71.6-259.3 0 -71.6 71.6-71.6 187.7 0 259.3 71.6 71.6 187.7 71.6 259.3 0C78.8 454.5 78.8 338.4 7.2 266.8zM-187.3 504.6l-43.2-43.2 64.8-64.8 -64.8-64.8 43.2-43.2 64.8 64.8 64.8-64.8 43.2 43.2 -64.8 64.8 64.8 64.8 -43.2 43.2 -64.8-64.8L-187.3 504.6z"/></svg>
