<svg id="generalLogo" xmlns="http://www.w3.org/2000/svg" viewBox="-383 168.2 456.8 353">
	<path d="M32.3 178.6c-23-7.3-48.4-10.4-72.7-10.4 -40.5 0-84.1 8.3-114.2 31.1 -30.1-22.8-73.7-31.1-114.2-31.1s-84.1 8.3-114.2 31.1v304.2c0 5.2 5.2 10.4 10.4 10.4 2.1 0 3.1-1 5.2-1 28-13.5 68.5-22.8 98.6-22.8 40.5 0 84.1 8.3 114.2 31.1 28-17.6 78.9-31.1 114.2-31.1 34.3 0 69.6 6.2 98.6 21.8 2.1 1 3.1 1 5.2 1 5.2 0 10.4-5.2 10.4-10.4V199.3C61.3 190 47.8 183.8 32.3 178.6zM32.3 458.9c-22.8-7.3-47.8-10.4-72.7-10.4 -35.3 0-86.2 13.5-114.2 31.1V240.9c28-17.6 78.9-31.1 114.2-31.1 24.9 0 49.8 3.1 72.7 10.4V458.9z"/>
</svg>