<svg id="helpMailLogo" xmlns="http://www.w3.org/2000/svg" viewBox="0 0 70.7 36">
	<path d="M13.9 25.7c2.8 1.4 5.7 3.8 6.9 6.7 -1.5 1.2-1.7 1.4-3.5 2.9 -1.7-3.3-3.8-5.2-6.7-5.9 -1.7 2.2-4.4 4.7-8.7 5.9 -1-2-1.2-2.6-1.9-4.1 3.4-0.8 4.7-1.9 6.4-5.1 -0.1-3.9 0.9-7.7 3.4-9.3 1.3 0.4 3.5 1.7 4.1 1.9 -0.1 0.4 0.2 0.8 1.2 1.1 0.8 0.2 2.7 0.4 4.5-1.2 1.1 1.7 2 3.4 2 3.4s-3.5 3.4-7.6 2.4C13.9 24.8 13.9 25 13.9 25.7z"/>
	<circle cx="14.8" cy="11.8" r="4.3"/>
	<path d="M70.7 2.8c0-1.5-1.2-2.8-2.8-2.8H29.2c-1.5 0-2.8 1.2-2.8 2.8v30.5c0 1.5 1.2 2.8 2.8 2.8h38.7c1.5 0 2.8-1.2 2.8-2.8V2.8zM64.1 9.5L49.7 22.6c-1 0.9-2.6 0.9-3.6 0L31.4 9.5v-3h4.7c0.7 0 1.3 0.4 1.8 0.8l8.5 7.6c1.1 0.9 2.6 1 3.7 0l8.3-7.6c0.5-0.5 1.2-0.8 1.8-0.8h3.9V9.5z"/>
</svg>