<svg id="helpFAQLogo" xmlns="http://www.w3.org/2000/svg" viewBox="0 0 46 48.1">
	<path d="M19.6 20.6c0-1.8 0-3.4 0-5.1 2.3 0 4.5 0 6.8 0 0 1.7 0 3.3 0 5.1 0.4 0 0.7 0 1 0 4.6 0 9.3 0 13.9 0 1.6 0 2.2 0.6 2.2 2.2 0 1.9 0 3.9 0 5.8 0 1.6-0.6 2.2-2.2 2.2 -11.7 0-23.4 0-35.1 0 -1 0-1.8-0.3-2.5-1 -1.1-1.1-2.2-2.2-3.3-3.3 -0.5-0.5-0.6-1 0-1.5 1.2-1.2 2.4-2.4 3.6-3.6 0.6-0.6 1.3-0.8 2.2-0.8 4.1 0 8.2 0 12.4 0C18.8 20.6 19.2 20.6 19.6 20.6z"/>
	<path d="M19.6 3.4c0-0.6 0-1.1 0-1.5C19.7 0.7 20.3 0 21.5 0c1 0 2.1 0 3.1 0 1.2 0 1.8 0.7 1.9 1.8 0 0.5 0 1 0 1.6 0.4 0 0.7 0 1 0 4.1 0 8.2 0 12.3 0 1 0 1.9 0.3 2.6 1.1 1.1 1.1 2.1 2.1 3.2 3.2 0.7 0.7 0.7 1.1 0 1.7 -1.1 1.1-2.2 2.2-3.3 3.3 -0.6 0.6-1.4 0.9-2.3 0.9 -11.8 0-23.5 0-35.3 0 -1.6 0-2.2-0.6-2.2-2.2 0-2 0-3.9 0-5.9 0-1.6 0.6-2.2 2.2-2.2 4.6 0 9.3 0 13.9 0C18.8 3.4 19.1 3.4 19.6 3.4z"/>
	<path d="M19.7 32.7c2.2 0 4.4 0 6.7 0 0 0.3 0 0.6 0 0.9 0 4.1 0 8.1 0 12.2 0 1.8-0.6 2.3-2.4 2.3 -0.9 0-1.8 0-2.7 0 -1.1 0-1.8-0.7-1.8-1.7 0-4.5 0-9 0-13.5C19.6 32.9 19.7 32.8 19.7 32.7z"/>
</svg>
