<svg id="helpLogo" xmlns="http://www.w3.org/2000/svg" viewBox="-139 51 512 512">
	<path d="M116.9 562.3c-141.4 0-256-114.6-256-256 0-141.4 114.6-256 256-256s256 114.6 256 256C372.9 447.7 258.3 562.3 116.9 562.3zM116.9 114.3c-106 0-192 86-192 192s86 192 192 192 192-86 192-192S223 114.3 116.9 114.3z"/><path d="M156.4 362.1L156.4 362.1c-0.1 0-0.1 0-0.2 0.1C156.4 362.2 156.4 362.1 156.4 362.1z"/><path d="M-243.3 432.9L-243.3 432.9c-0.7 0-1.4 0-2.1 0H-243.3z"/>

	<path d="M64.3 192.1c13.4-8.7 30-13 49.6-13 25.7 0 47.1 6.2 64.2 18.5 17 12.3 25.5 30.5 25.5 54.7 0 14.8-3.7 27.3-11.1 37.4 -4.3 6.2-12.6 14-24.9 23.6l-12.1 9.4c-6.6 5.1-11 11.1-13.1 17.9 -1.4 4.3-2.1 11.1-2.2 20.2H93.9c0.7-19.3 2.5-32.6 5.5-39.9 3-7.3 10.6-15.8 22.8-25.4l12.4-9.7c4.1-3.1 7.4-6.4 9.9-10.1 4.5-6.3 6.8-13.2 6.8-20.7 0-8.7-2.5-16.5-7.6-23.7 -5.1-7.1-14.3-10.7-27.7-10.7 -13.2 0-22.5 4.4-28 13.2 -5.5 8.8-8.3 17.9-8.3 27.3H30.3C31.6 228.7 43 205.6 64.3 192.1zM92.7 384.2h51.1v49.4H92.7V384.2z"/>
</svg>