<svg id="notificationsLogo" xmlns="http://www.w3.org/2000/svg" viewBox="0 0 537.5 537.5">
	<path d="M464.4 351.4h-33.7v-161.1c0-79.1-57.2-145-132.8-158.6 0.2-0.8 0.2-1.7 0.2-2.6 0-16-13-29.1-29.1-29.1 -16.1 0-29.1 13-29.1 29.1 0 0.8 0 1.7 0.2 2.6 -75.5 13.6-132.9 79.5-132.9 158.6v161.1H73.2c-6 0-10.8 4.8-10.8 10.8v57.4c0 6 4.8 10.8 10.8 10.8h391c6 0 10.8-4.8 10.8-10.8V362.2C475.2 356.2 470.3 351.4 464.4 351.4z"/>
	<path d="M267 537.5c34.7 0 62.7-31.7 62.7-70.9h-125.5C204.3 505.8 232.4 537.5 267 537.5z"/>
</svg>
