<svg id="powerLogo" xmlns="http://www.w3.org/2000/svg" viewBox="-373 159.9 475.1 475.1">
	<path d="M-135.5 415.7c9.9 0 18.5-3.6 25.7-10.8 7.2-7.2 10.9-15.8 10.9-25.7V196.5c0-9.9-3.6-18.5-10.9-25.7 -7.2-7.2-15.8-10.9-25.7-10.9 -9.9 0-18.5 3.6-25.7 10.9 -7.2 7.2-10.9 15.8-10.9 25.7v182.7c0 9.9 3.6 18.5 10.9 25.7C-153.9 412.1-145.4 415.7-135.5 415.7z"/>
	<path d="M60.8 317.8C45.5 287.2 24 261.5-3.8 240.7c-8-6.1-17-8.5-27.1-7.1 -10.1 1.3-18.1 6.1-24 14.3 -6.1 8-8.4 17-7 27 1.4 10 6.1 18 14.1 24.1 18.6 14.1 33.1 31.3 43.2 51.7 10.2 20.4 15.3 42.1 15.3 65.1 0 19.8-3.9 38.7-11.6 56.7 -7.7 18-18.1 33.5-31.3 46.7 -13.1 13.1-28.7 23.6-46.7 31.3 -18 7.7-36.9 11.6-56.7 11.6 -19.8 0-38.7-3.9-56.7-11.6 -18-7.7-33.5-18.1-46.7-31.3 -13.1-13.1-23.6-28.7-31.3-46.7 -7.7-18-11.6-36.9-11.6-56.7 0-23 5.1-44.7 15.3-65.1 10.2-20.4 24.6-37.6 43.3-51.7 8-6.1 12.7-14.1 14.1-24.1 1.4-10-0.9-19-7-27 -5.9-8.2-13.8-12.9-23.8-14.3 -10-1.3-19.1 1-27.3 7.1 -27.8 20.7-49.3 46.4-64.7 77.1 -15.3 30.6-23 63.3-23 97.9 0 29.7 5.8 58.1 17.4 85.1 11.6 27 27.2 50.3 46.8 69.9 19.6 19.6 42.9 35.2 69.9 46.8 27 11.6 55.4 17.4 85.1 17.4 29.7 0 58.1-5.8 85.1-17.4 27-11.6 50.3-27.2 70-46.8 19.6-19.6 35.2-42.9 46.8-69.9 11.6-27 17.4-55.4 17.4-85.1C83.8 381.1 76.2 348.4 60.8 317.8z"/>
</svg>
