<svg id="profileLogo" xmlns="http://www.w3.org/2000/svg" viewBox="-599 385 21.6 24">
	<path d="M-579.8 387.4h-5c-0.5-1.4-1.8-2.4-3.4-2.4s-2.9 1-3.4 2.4h-5c-1.3 0-2.4 1.1-2.4 2.4v16.8c0 1.3 1.1 2.4 2.4 2.4h16.8c1.3 0 2.4-1.1 2.4-2.4v-16.8C-577.4 388.5-578.5 387.4-579.8 387.4zM-588.2 387.4c0.7 0 1.2 0.5 1.2 1.2s-0.5 1.2-1.2 1.2c-0.7 0-1.2-0.5-1.2-1.2S-588.9 387.4-588.2 387.4zM-588.2 392.2c2 0 3.6 1.6 3.6 3.6 0 2-1.6 3.6-3.6 3.6s-3.6-1.6-3.6-3.6C-591.8 393.8-590.2 392.2-588.2 392.2zM-581 406.6h-14.4v-1.7c0-2.4 4.8-3.7 7.2-3.7 2.4 0 7.2 1.3 7.2 3.7V406.6z"/>
</svg>
