<svg id="scriptLogo" xmlns="http://www.w3.org/2000/svg" viewBox="-367 152 377.9 489">
	<path d="M10.9 174.2c0-12.3-10-22.2-22.2-22.2h-333.4c-12.3 0-22.2 10-22.2 22.2v444.5c0 12.3 10 22.2 22.2 22.2h333.4c12.3 0 22.2-10 22.2-22.2V174.2zM-33.6 596.5h-289V196.5h289V596.5zM-269.9 449.3c0-10.7 8.7-19.4 19.4-19.4h65.7c10.7 0 19.4 8.7 19.4 19.4s-8.7 19.4-19.4 19.4h-65.7C-261.2 468.7-269.9 460-269.9 449.3zM-266.8 360.4c0-10.7 8.7-19.4 19.4-19.4h132.3c10.7 0 19.4 8.7 19.4 19.4s-8.7 19.4-19.4 19.4h-132.3C-258.1 379.8-266.8 371.1-266.8 360.4zM-266.8 277c0-10.7 8.7-19.4 19.4-19.4h132.3c10.7 0 19.4 8.7 19.4 19.4s-8.7 19.4-19.4 19.4h-132.3C-258.1 296.5-266.8 287.8-266.8 277zM-102.1 437c3.6 3.6 5.7 8.6 5.7 13.8 0 5.1-2.1 10.1-5.7 13.7 -3.6 3.6-8.7 5.7-13.8 5.7 -5.1 0-10.1-2.1-13.7-5.7 -3.7-3.6-5.7-8.6-5.7-13.7 0-5.2 2.1-10.2 5.7-13.8C-122.4 429.8-109.3 429.8-102.1 437z"/>
</svg>
