<svg id="scriptLogo" xmlns="http://www.w3.org/2000/svg" viewBox="-367 152 489 489">
	<path d="M71.5 641c23.3 0 42.2-18.9 42.2-42.2V194.2c0-23.3-18.9-42.2-42.2-42.2H7.7v252.3c0 6.5-7.7 9.9-12.5 5.6l-42.6-38.4c-2.8-2.6-7.2-2.6-10 0l-42.6 38.4c-4.8 4.3-12.5 0.9-12.5-5.6V152H-266c-23.3 0-42.2 18.9-42.2 42.2v53h-20.2c-16.7 0-30.3 13.6-30.3 30.3s13.6 30.3 30.3 30.3h20.2v58.4h-20.2c-16.7 0-30.3 13.6-30.3 30.3 0 16.7 13.6 30.3 30.3 30.3h20.2v58.4h-20.2c-16.7 0-30.3 13.6-30.3 30.3 0 16.7 13.6 30.3 30.3 30.3h20.2v53c0 23.3 18.9 42.2 42.2 42.2H71.5L71.5 641z"/>
</svg>
