<svg id="settingsLogo" xmlns="http://www.w3.org/2000/svg" viewBox="-163 -52 896 896">
	<path d="M700.2 330.7l-88.8-14.8c-6.5-26.4-15.9-51.6-28.1-75.1l56.8-70.5c12.1-14.9 11.5-36.3-1.2-50.7L603.7 80c-12.8-14.4-34-17.4-50.2-7.2l-75.9 47.7C444.2 97.2 406.4 80 365.6 70l-14.8-89.2C347.6-38.1 331.3-52 312.1-52h-53.2c-19.2 0-35.6 13.9-38.6 32.8L205.3 70c-33.7 8.3-65.4 21.6-94.2 39.1L38.9 57.6C23.4 46.5 2 48.3-11.6 61.8l-37.6 37.6c-13.5 13.6-15.3 34.9-4.1 50.5l51.6 72.3c-17.4 28.6-30.6 60.1-38.8 93.5l-89.7 15c-18.9 3.1-32.8 19.5-32.8 38.7v53.2c0 19.2 13.9 35.5 32.8 38.7l89.7 15c6.8 27.5 16.6 53.8 29.7 78.1l-56.6 70.1c-12 14.9-11.5 36.3 1.2 50.7l35.3 39.7c12.8 14.4 34 17.4 50.2 7.2l77-48.4c32.6 22.3 69.4 38.7 109 48.4l14.9 89.2c3 18.9 19.5 32.8 38.6 32.8h53.2c19.2 0 35.5-13.9 38.7-32.8l14.9-89.2c33.3-8.1 64.5-21.2 93.1-38.5l75.2 53.7c15.5 11.2 36.9 9.4 50.5-4.2l37.6-37.6c13.5-13.5 15.4-34.9 4.1-50.5l-53.5-75.1c17.4-28.7 30.7-60.2 38.9-93.8l88.8-14.8c18.9-3.1 32.8-19.5 32.8-38.7v-53.2C733 350.2 719.2 333.9 700.2 330.7zM286.4 564c-92.8 0-168-75.2-168-168 0-92.8 75.2-168 168-168 92.7 0 168 75.2 168 168C454.4 488.7 379.2 564 286.4 564z"/>
</svg>