<svg id="summaryLogo" xmlns="http://www.w3.org/2000/svg" viewBox="-383 168.2 456.8 456.8">
	<rect x="-268.8" y="282.4" width="57.1" height="57.1"/>
	<rect x="-268.8" y="368" width="57.1" height="57.1"/>
	<rect x="-268.8" y="453.7" width="57.1" height="57.1"/>
	<rect x="-154.6" y="453.7" width="114.2" height="57.1"/>
	<path d="M45.3 168.2h-399.7c-15.8 0-28.6 12.8-28.6 28.6v399.7c0 15.8 12.8 28.6 28.6 28.6H45.3c15.8 0 28.6-12.8 28.6-28.6V196.7C73.8 180.9 61.1 168.2 45.3 168.2zM16.7 567.9h-342.6V225.3H16.7V567.9z"/>
	<rect x="-154.6" y="368" width="114.2" height="57.1"/>
	<rect x="-154.6" y="282.4" width="114.2" height="57.1"/>
</svg>
