<svg id="summaryLogo" xmlns="http://www.w3.org/2000/svg" viewBox="-383 168.2 411.1 456.8">
	<path d="M-17.6 213.9H-113c-9.6-26.5-34.7-45.7-64.4-45.7s-54.8 19.2-64.4 45.7h-95.5c-25.1 0-45.7 20.6-45.7 45.7v319.8c0 25.1 20.6 45.7 45.7 45.7h319.8c25.1 0 45.7-20.6 45.7-45.7V259.6C28.1 234.4 7.6 213.9-17.6 213.9zM-177.4 213.9c12.6 0 22.8 10.3 22.8 22.8 0 12.6-10.3 22.8-22.8 22.8 -12.6 0-22.8-10.3-22.8-22.8C-200.3 224.2-190 213.9-177.4 213.9zM-131.8 533.6h-159.9V488h159.9V533.6zM-63.2 442.3h-228.4v-45.7h228.4V442.3zM-63.2 350.9h-228.4v-45.7h228.4V350.9z"/>
</svg>
